<svg width="11" height="7" viewBox="0 0 11 7" fill="none" xmlns="http://www.w3.org/2000/svg">
<path d="M10.0028 1.16092C10.0695 1.22759 10.1028 1.30467 10.1028 1.39217C10.1028 1.47967 10.0695 1.55675 10.0028 1.62342L5.33403 6.29217C5.26737 6.35884 5.19028 6.39217 5.10278 6.39217C5.01528 6.39217 4.9382 6.35884 4.87153 6.29217L0.202783 1.62134C0.136116 1.55467 0.102783 1.47759 0.102783 1.39009C0.102783 1.30259 0.136116 1.2255 0.202783 1.15884L0.702783 0.658838C0.76945 0.592171 0.846533 0.558838 0.934033 0.558838C1.02153 0.558838 1.09862 0.592171 1.16528 0.658838L5.10278 4.59634L9.04028 0.658838C9.10695 0.592171 9.18403 0.558838 9.27153 0.558838C9.35903 0.558838 9.43612 0.592171 9.50278 0.658838L10.0028 1.16092Z" fill="#fff"/>
</svg>
